<svg width="110" height="47" viewBox="0 0 110 47" fill="none" xmlns="http://www.w3.org/2000/svg">
<mask id="path-1-outside-1_3044_1493" maskUnits="userSpaceOnUse" x="4" y="0" width="105" height="28" fill="black">
<rect fill="white" x="4" width="105" height="28"/>
<path d="M5 14.4C5 13.488 5.168 12.632 5.504 11.832C5.856 11.032 6.328 10.336 6.92 9.744C7.528 9.136 8.232 8.664 9.032 8.328C9.832 7.976 10.688 7.8 11.6 7.8C12.512 7.8 13.368 7.976 14.168 8.328C14.968 8.664 15.664 9.136 16.256 9.744C16.864 10.336 17.336 11.032 17.672 11.832C18.024 12.632 18.2 13.488 18.2 14.4C18.2 15.312 18.024 16.168 17.672 16.968C17.336 17.768 16.864 18.472 16.256 19.08C15.664 19.672 14.968 20.144 14.168 20.496C13.368 20.832 12.512 21 11.6 21C10.688 21 9.832 20.832 9.032 20.496C8.232 20.144 7.528 19.672 6.92 19.08C6.328 18.472 5.856 17.768 5.504 16.968C5.168 16.168 5 15.312 5 14.4ZM11.6 19.896C12.352 19.896 13.064 19.752 13.736 19.464C14.408 19.176 14.992 18.784 15.488 18.288C15.984 17.792 16.376 17.208 16.664 16.536C16.952 15.864 17.096 15.152 17.096 14.4C17.096 13.648 16.952 12.936 16.664 12.264C16.376 11.592 15.984 11.008 15.488 10.512C14.992 10.016 14.408 9.624 13.736 9.336C13.064 9.048 12.352 8.904 11.6 8.904C10.848 8.904 10.136 9.048 9.464 9.336C8.792 9.624 8.208 10.016 7.712 10.512C7.216 11.008 6.824 11.592 6.536 12.264C6.248 12.936 6.104 13.648 6.104 14.4C6.104 15.152 6.248 15.864 6.536 16.536C6.824 17.208 7.216 17.792 7.712 18.288C8.208 18.784 8.792 19.176 9.464 19.464C10.136 19.752 10.848 19.896 11.6 19.896ZM32.1892 10.752V8.376C32.1892 7.464 32.3572 6.608 32.6932 5.808C33.0452 5.008 33.5172 4.312 34.1092 3.72C34.7172 3.112 35.4212 2.64 36.2212 2.304C37.0212 1.952 37.8772 1.776 38.7892 1.776H39.3412V2.88H38.7892C38.0372 2.88 37.3252 3.024 36.6532 3.312C35.9812 3.6 35.3972 3.992 34.9012 4.488C34.4052 4.984 34.0132 5.568 33.7252 6.24C33.4372 6.912 33.2932 7.624 33.2932 8.376V14.4C33.2932 15.312 33.1172 16.168 32.7652 16.968C32.4292 17.768 31.9572 18.472 31.3492 19.08C30.7572 19.672 30.0612 20.144 29.2612 20.496C28.4772 20.832 27.6292 21 26.7172 21C25.8052 21 24.9492 20.832 24.1492 20.496C23.3492 20.144 22.6452 19.672 22.0372 19.08C21.4452 18.472 20.9732 17.768 20.6212 16.968C20.2852 16.168 20.1172 15.312 20.1172 14.4C20.1172 13.488 20.2852 12.64 20.6212 11.856C20.9732 11.056 21.4452 10.36 22.0372 9.768C22.6452 9.16 23.3492 8.688 24.1492 8.352C24.9492 8 25.8052 7.824 26.7172 7.824C27.8692 7.824 28.9172 8.088 29.8612 8.616C30.8212 9.144 31.5972 9.856 32.1892 10.752ZM21.2212 14.4C21.2212 15.152 21.3652 15.864 21.6532 16.536C21.9412 17.208 22.3332 17.792 22.8292 18.288C23.3252 18.784 23.9092 19.176 24.5812 19.464C25.2532 19.752 25.9652 19.896 26.7172 19.896C27.4692 19.896 28.1732 19.752 28.8292 19.464C29.5012 19.176 30.0852 18.784 30.5812 18.288C31.0772 17.792 31.4692 17.208 31.7572 16.536C32.0452 15.864 32.1892 15.152 32.1892 14.4C32.1892 13.648 32.0452 12.944 31.7572 12.288C31.4692 11.616 31.0772 11.032 30.5812 10.536C30.0852 10.04 29.5012 9.648 28.8292 9.36C28.1732 9.072 27.4692 8.928 26.7172 8.928C25.9652 8.928 25.2532 9.072 24.5812 9.36C23.9092 9.648 23.3252 10.04 22.8292 10.536C22.3332 11.032 21.9412 11.616 21.6532 12.288C21.3652 12.944 21.2212 13.648 21.2212 14.4ZM50.6381 14.4C50.6381 15.312 50.4621 16.168 50.1101 16.968C49.7741 17.768 49.3021 18.472 48.6941 19.08C48.1021 19.672 47.4061 20.144 46.6061 20.496C45.8061 20.848 44.9501 21.024 44.0381 21.024C42.8861 21.024 41.8301 20.76 40.8701 20.232C39.9101 19.688 39.1261 18.968 38.5181 18.072V27.072H37.4381V13.848C37.5181 13 37.7421 12.208 38.1101 11.472C38.4781 10.736 38.9581 10.096 39.5501 9.552C40.1421 8.992 40.8221 8.56 41.5901 8.256C42.3581 7.936 43.1741 7.776 44.0381 7.776C44.9501 7.776 45.8061 7.952 46.6061 8.304C47.4061 8.64 48.1021 9.112 48.6941 9.72C49.3021 10.312 49.7741 11.016 50.1101 11.832C50.4621 12.632 50.6381 13.488 50.6381 14.4ZM49.5341 14.4C49.5341 13.648 49.3901 12.936 49.1021 12.264C48.8141 11.592 48.4221 11.008 47.9261 10.512C47.4301 10.016 46.8461 9.624 46.1741 9.336C45.5021 9.048 44.7901 8.904 44.0381 8.904C43.2701 8.904 42.5501 9.048 41.8781 9.336C41.2221 9.624 40.6381 10.016 40.1261 10.512C39.6301 11.008 39.2381 11.592 38.9501 12.264C38.6621 12.936 38.5181 13.648 38.5181 14.4C38.5181 15.152 38.6621 15.864 38.9501 16.536C39.2381 17.208 39.6301 17.792 40.1261 18.288C40.6381 18.784 41.2221 19.176 41.8781 19.464C42.5501 19.752 43.2701 19.896 44.0381 19.896C44.7901 19.896 45.5021 19.752 46.1741 19.464C46.8461 19.176 47.4301 18.784 47.9261 18.288C48.4221 17.792 48.8141 17.208 49.1021 16.536C49.3901 15.864 49.5341 15.152 49.5341 14.4ZM64.6267 13.872L65.7067 14.28V21H64.6267V13.872ZM59.1307 21C58.2187 21 57.3627 20.832 56.5627 20.496C55.7787 20.144 55.0827 19.672 54.4747 19.08C53.8827 18.472 53.4107 17.776 53.0587 16.992C52.7227 16.192 52.5547 15.336 52.5547 14.424C52.5547 13.512 52.7227 12.656 53.0587 11.856C53.4107 11.056 53.8827 10.36 54.4747 9.768C55.0827 9.16 55.7787 8.688 56.5627 8.352C57.3627 8 58.2187 7.824 59.1307 7.824C60.0427 7.824 60.8987 8 61.6987 8.352C62.4987 8.688 63.1947 9.16 63.7867 9.768C64.3947 10.36 64.8667 11.056 65.2027 11.856C65.5547 12.656 65.7307 13.512 65.7307 14.424C65.7307 15.336 65.5547 16.192 65.2027 16.992C64.8667 17.776 64.3947 18.472 63.7867 19.08C63.1947 19.672 62.4987 20.144 61.6987 20.496C60.8987 20.832 60.0427 21 59.1307 21ZM59.1307 8.928C58.3787 8.928 57.6667 9.072 56.9947 9.36C56.3387 9.648 55.7627 10.04 55.2667 10.536C54.7707 11.032 54.3787 11.616 54.0907 12.288C53.8027 12.96 53.6587 13.672 53.6587 14.424C53.6587 15.176 53.8027 15.888 54.0907 16.56C54.3787 17.216 54.7707 17.792 55.2667 18.288C55.7627 18.784 56.3387 19.176 56.9947 19.464C57.6667 19.752 58.3787 19.896 59.1307 19.896C59.8827 19.896 60.5947 19.752 61.2667 19.464C61.9387 19.176 62.5227 18.784 63.0187 18.288C63.5147 17.792 63.9067 17.216 64.1947 16.56C64.4827 15.888 64.6267 15.176 64.6267 14.424C64.6267 13.672 64.4827 12.96 64.1947 12.288C63.9067 11.616 63.5147 11.032 63.0187 10.536C62.5227 10.04 61.9387 9.648 61.2667 9.36C60.5947 9.072 59.8827 8.928 59.1307 8.928ZM76.5524 11.376C76.5524 11.04 76.4884 10.72 76.3604 10.416C76.2324 10.112 76.0484 9.848 75.8084 9.624C75.5844 9.384 75.3204 9.2 75.0164 9.072C74.7124 8.944 74.3924 8.88 74.0564 8.88H67.6484V7.824H74.0564C74.5524 7.824 75.0164 7.92 75.4484 8.112C75.8804 8.288 76.2564 8.536 76.5764 8.856C76.9124 9.176 77.1684 9.552 77.3444 9.984C77.5364 10.416 77.6324 10.88 77.6324 11.376C77.6324 12.016 77.4804 12.6 77.1764 13.128C76.8724 13.656 76.4644 14.08 75.9524 14.4C76.4644 14.72 76.8724 15.144 77.1764 15.672C77.4964 16.2 77.6564 16.784 77.6564 17.424C77.6564 17.92 77.5604 18.384 77.3684 18.816C77.1924 19.248 76.9444 19.624 76.6244 19.944C76.3044 20.264 75.9284 20.52 75.4964 20.712C75.0644 20.904 74.6004 21 74.1044 21H67.6964V19.92H74.1044C74.4404 19.92 74.7604 19.856 75.0644 19.728C75.3684 19.6 75.6324 19.424 75.8564 19.2C76.0804 18.976 76.2564 18.712 76.3844 18.408C76.5124 18.104 76.5764 17.776 76.5764 17.424C76.5764 17.088 76.5124 16.776 76.3844 16.488C76.2724 16.184 76.1044 15.92 75.8804 15.696C75.6724 15.456 75.4164 15.272 75.1124 15.144C74.8244 15.016 74.5124 14.952 74.1764 14.952H71.9684V13.872H74.1764C74.5124 13.872 74.8244 13.808 75.1124 13.68C75.4004 13.536 75.6484 13.352 75.8564 13.128C76.0804 12.904 76.2484 12.64 76.3604 12.336C76.4884 12.032 76.5524 11.712 76.5524 11.376ZM80.6821 14.952V21H79.5781V7.824H80.6821V13.848H91.6501V7.824H92.7541V21H91.6501V14.952H80.6821ZM94.6719 14.4C94.6719 13.488 94.8399 12.632 95.1759 11.832C95.5279 11.032 95.9999 10.336 96.5919 9.744C97.1999 9.136 97.9039 8.664 98.7039 8.328C99.5039 7.976 100.36 7.8 101.272 7.8C102.184 7.8 103.04 7.976 103.84 8.328C104.64 8.664 105.336 9.136 105.928 9.744C106.536 10.336 107.008 11.032 107.344 11.832C107.696 12.632 107.872 13.488 107.872 14.4C107.872 15.312 107.696 16.168 107.344 16.968C107.008 17.768 106.536 18.472 105.928 19.08C105.336 19.672 104.64 20.144 103.84 20.496C103.04 20.832 102.184 21 101.272 21C100.36 21 99.5039 20.832 98.7039 20.496C97.9039 20.144 97.1999 19.672 96.5919 19.08C95.9999 18.472 95.5279 17.768 95.1759 16.968C94.8399 16.168 94.6719 15.312 94.6719 14.4ZM101.272 19.896C102.024 19.896 102.736 19.752 103.408 19.464C104.08 19.176 104.664 18.784 105.16 18.288C105.656 17.792 106.048 17.208 106.336 16.536C106.624 15.864 106.768 15.152 106.768 14.4C106.768 13.648 106.624 12.936 106.336 12.264C106.048 11.592 105.656 11.008 105.16 10.512C104.664 10.016 104.08 9.624 103.408 9.336C102.736 9.048 102.024 8.904 101.272 8.904C100.52 8.904 99.8079 9.048 99.1359 9.336C98.4639 9.624 97.8799 10.016 97.3839 10.512C96.8879 11.008 96.4959 11.592 96.2079 12.264C95.9199 12.936 95.7759 13.648 95.7759 14.4C95.7759 15.152 95.9199 15.864 96.2079 16.536C96.4959 17.208 96.8879 17.792 97.3839 18.288C97.8799 18.784 98.4639 19.176 99.1359 19.464C99.8079 19.752 100.52 19.896 101.272 19.896Z"/>
</mask>
<path d="M5 14.4C5 13.488 5.168 12.632 5.504 11.832C5.856 11.032 6.328 10.336 6.92 9.744C7.528 9.136 8.232 8.664 9.032 8.328C9.832 7.976 10.688 7.8 11.6 7.8C12.512 7.8 13.368 7.976 14.168 8.328C14.968 8.664 15.664 9.136 16.256 9.744C16.864 10.336 17.336 11.032 17.672 11.832C18.024 12.632 18.2 13.488 18.2 14.4C18.2 15.312 18.024 16.168 17.672 16.968C17.336 17.768 16.864 18.472 16.256 19.08C15.664 19.672 14.968 20.144 14.168 20.496C13.368 20.832 12.512 21 11.6 21C10.688 21 9.832 20.832 9.032 20.496C8.232 20.144 7.528 19.672 6.92 19.08C6.328 18.472 5.856 17.768 5.504 16.968C5.168 16.168 5 15.312 5 14.4ZM11.6 19.896C12.352 19.896 13.064 19.752 13.736 19.464C14.408 19.176 14.992 18.784 15.488 18.288C15.984 17.792 16.376 17.208 16.664 16.536C16.952 15.864 17.096 15.152 17.096 14.4C17.096 13.648 16.952 12.936 16.664 12.264C16.376 11.592 15.984 11.008 15.488 10.512C14.992 10.016 14.408 9.624 13.736 9.336C13.064 9.048 12.352 8.904 11.6 8.904C10.848 8.904 10.136 9.048 9.464 9.336C8.792 9.624 8.208 10.016 7.712 10.512C7.216 11.008 6.824 11.592 6.536 12.264C6.248 12.936 6.104 13.648 6.104 14.4C6.104 15.152 6.248 15.864 6.536 16.536C6.824 17.208 7.216 17.792 7.712 18.288C8.208 18.784 8.792 19.176 9.464 19.464C10.136 19.752 10.848 19.896 11.6 19.896ZM32.1892 10.752V8.376C32.1892 7.464 32.3572 6.608 32.6932 5.808C33.0452 5.008 33.5172 4.312 34.1092 3.72C34.7172 3.112 35.4212 2.64 36.2212 2.304C37.0212 1.952 37.8772 1.776 38.7892 1.776H39.3412V2.88H38.7892C38.0372 2.88 37.3252 3.024 36.6532 3.312C35.9812 3.6 35.3972 3.992 34.9012 4.488C34.4052 4.984 34.0132 5.568 33.7252 6.24C33.4372 6.912 33.2932 7.624 33.2932 8.376V14.4C33.2932 15.312 33.1172 16.168 32.7652 16.968C32.4292 17.768 31.9572 18.472 31.3492 19.08C30.7572 19.672 30.0612 20.144 29.2612 20.496C28.4772 20.832 27.6292 21 26.7172 21C25.8052 21 24.9492 20.832 24.1492 20.496C23.3492 20.144 22.6452 19.672 22.0372 19.08C21.4452 18.472 20.9732 17.768 20.6212 16.968C20.2852 16.168 20.1172 15.312 20.1172 14.4C20.1172 13.488 20.2852 12.64 20.6212 11.856C20.9732 11.056 21.4452 10.36 22.0372 9.768C22.6452 9.16 23.3492 8.688 24.1492 8.352C24.9492 8 25.8052 7.824 26.7172 7.824C27.8692 7.824 28.9172 8.088 29.8612 8.616C30.8212 9.144 31.5972 9.856 32.1892 10.752ZM21.2212 14.4C21.2212 15.152 21.3652 15.864 21.6532 16.536C21.9412 17.208 22.3332 17.792 22.8292 18.288C23.3252 18.784 23.9092 19.176 24.5812 19.464C25.2532 19.752 25.9652 19.896 26.7172 19.896C27.4692 19.896 28.1732 19.752 28.8292 19.464C29.5012 19.176 30.0852 18.784 30.5812 18.288C31.0772 17.792 31.4692 17.208 31.7572 16.536C32.0452 15.864 32.1892 15.152 32.1892 14.4C32.1892 13.648 32.0452 12.944 31.7572 12.288C31.4692 11.616 31.0772 11.032 30.5812 10.536C30.0852 10.04 29.5012 9.648 28.8292 9.36C28.1732 9.072 27.4692 8.928 26.7172 8.928C25.9652 8.928 25.2532 9.072 24.5812 9.36C23.9092 9.648 23.3252 10.04 22.8292 10.536C22.3332 11.032 21.9412 11.616 21.6532 12.288C21.3652 12.944 21.2212 13.648 21.2212 14.4ZM50.6381 14.4C50.6381 15.312 50.4621 16.168 50.1101 16.968C49.7741 17.768 49.3021 18.472 48.6941 19.08C48.1021 19.672 47.4061 20.144 46.6061 20.496C45.8061 20.848 44.9501 21.024 44.0381 21.024C42.8861 21.024 41.8301 20.76 40.8701 20.232C39.9101 19.688 39.1261 18.968 38.5181 18.072V27.072H37.4381V13.848C37.5181 13 37.7421 12.208 38.1101 11.472C38.4781 10.736 38.9581 10.096 39.5501 9.552C40.1421 8.992 40.8221 8.56 41.5901 8.256C42.3581 7.936 43.1741 7.776 44.0381 7.776C44.9501 7.776 45.8061 7.952 46.6061 8.304C47.4061 8.64 48.1021 9.112 48.6941 9.72C49.3021 10.312 49.7741 11.016 50.1101 11.832C50.4621 12.632 50.6381 13.488 50.6381 14.4ZM49.5341 14.4C49.5341 13.648 49.3901 12.936 49.1021 12.264C48.8141 11.592 48.4221 11.008 47.9261 10.512C47.4301 10.016 46.8461 9.624 46.1741 9.336C45.5021 9.048 44.7901 8.904 44.0381 8.904C43.2701 8.904 42.5501 9.048 41.8781 9.336C41.2221 9.624 40.6381 10.016 40.1261 10.512C39.6301 11.008 39.2381 11.592 38.9501 12.264C38.6621 12.936 38.5181 13.648 38.5181 14.4C38.5181 15.152 38.6621 15.864 38.9501 16.536C39.2381 17.208 39.6301 17.792 40.1261 18.288C40.6381 18.784 41.2221 19.176 41.8781 19.464C42.5501 19.752 43.2701 19.896 44.0381 19.896C44.7901 19.896 45.5021 19.752 46.1741 19.464C46.8461 19.176 47.4301 18.784 47.9261 18.288C48.4221 17.792 48.8141 17.208 49.1021 16.536C49.3901 15.864 49.5341 15.152 49.5341 14.4ZM64.6267 13.872L65.7067 14.28V21H64.6267V13.872ZM59.1307 21C58.2187 21 57.3627 20.832 56.5627 20.496C55.7787 20.144 55.0827 19.672 54.4747 19.08C53.8827 18.472 53.4107 17.776 53.0587 16.992C52.7227 16.192 52.5547 15.336 52.5547 14.424C52.5547 13.512 52.7227 12.656 53.0587 11.856C53.4107 11.056 53.8827 10.36 54.4747 9.768C55.0827 9.16 55.7787 8.688 56.5627 8.352C57.3627 8 58.2187 7.824 59.1307 7.824C60.0427 7.824 60.8987 8 61.6987 8.352C62.4987 8.688 63.1947 9.16 63.7867 9.768C64.3947 10.36 64.8667 11.056 65.2027 11.856C65.5547 12.656 65.7307 13.512 65.7307 14.424C65.7307 15.336 65.5547 16.192 65.2027 16.992C64.8667 17.776 64.3947 18.472 63.7867 19.08C63.1947 19.672 62.4987 20.144 61.6987 20.496C60.8987 20.832 60.0427 21 59.1307 21ZM59.1307 8.928C58.3787 8.928 57.6667 9.072 56.9947 9.36C56.3387 9.648 55.7627 10.04 55.2667 10.536C54.7707 11.032 54.3787 11.616 54.0907 12.288C53.8027 12.96 53.6587 13.672 53.6587 14.424C53.6587 15.176 53.8027 15.888 54.0907 16.56C54.3787 17.216 54.7707 17.792 55.2667 18.288C55.7627 18.784 56.3387 19.176 56.9947 19.464C57.6667 19.752 58.3787 19.896 59.1307 19.896C59.8827 19.896 60.5947 19.752 61.2667 19.464C61.9387 19.176 62.5227 18.784 63.0187 18.288C63.5147 17.792 63.9067 17.216 64.1947 16.56C64.4827 15.888 64.6267 15.176 64.6267 14.424C64.6267 13.672 64.4827 12.96 64.1947 12.288C63.9067 11.616 63.5147 11.032 63.0187 10.536C62.5227 10.04 61.9387 9.648 61.2667 9.36C60.5947 9.072 59.8827 8.928 59.1307 8.928ZM76.5524 11.376C76.5524 11.04 76.4884 10.72 76.3604 10.416C76.2324 10.112 76.0484 9.848 75.8084 9.624C75.5844 9.384 75.3204 9.2 75.0164 9.072C74.7124 8.944 74.3924 8.88 74.0564 8.88H67.6484V7.824H74.0564C74.5524 7.824 75.0164 7.92 75.4484 8.112C75.8804 8.288 76.2564 8.536 76.5764 8.856C76.9124 9.176 77.1684 9.552 77.3444 9.984C77.5364 10.416 77.6324 10.88 77.6324 11.376C77.6324 12.016 77.4804 12.6 77.1764 13.128C76.8724 13.656 76.4644 14.08 75.9524 14.4C76.4644 14.72 76.8724 15.144 77.1764 15.672C77.4964 16.2 77.6564 16.784 77.6564 17.424C77.6564 17.92 77.5604 18.384 77.3684 18.816C77.1924 19.248 76.9444 19.624 76.6244 19.944C76.3044 20.264 75.9284 20.52 75.4964 20.712C75.0644 20.904 74.6004 21 74.1044 21H67.6964V19.92H74.1044C74.4404 19.92 74.7604 19.856 75.0644 19.728C75.3684 19.6 75.6324 19.424 75.8564 19.2C76.0804 18.976 76.2564 18.712 76.3844 18.408C76.5124 18.104 76.5764 17.776 76.5764 17.424C76.5764 17.088 76.5124 16.776 76.3844 16.488C76.2724 16.184 76.1044 15.92 75.8804 15.696C75.6724 15.456 75.4164 15.272 75.1124 15.144C74.8244 15.016 74.5124 14.952 74.1764 14.952H71.9684V13.872H74.1764C74.5124 13.872 74.8244 13.808 75.1124 13.68C75.4004 13.536 75.6484 13.352 75.8564 13.128C76.0804 12.904 76.2484 12.64 76.3604 12.336C76.4884 12.032 76.5524 11.712 76.5524 11.376ZM80.6821 14.952V21H79.5781V7.824H80.6821V13.848H91.6501V7.824H92.7541V21H91.6501V14.952H80.6821ZM94.6719 14.4C94.6719 13.488 94.8399 12.632 95.1759 11.832C95.5279 11.032 95.9999 10.336 96.5919 9.744C97.1999 9.136 97.9039 8.664 98.7039 8.328C99.5039 7.976 100.36 7.8 101.272 7.8C102.184 7.8 103.04 7.976 103.84 8.328C104.64 8.664 105.336 9.136 105.928 9.744C106.536 10.336 107.008 11.032 107.344 11.832C107.696 12.632 107.872 13.488 107.872 14.4C107.872 15.312 107.696 16.168 107.344 16.968C107.008 17.768 106.536 18.472 105.928 19.08C105.336 19.672 104.64 20.144 103.84 20.496C103.04 20.832 102.184 21 101.272 21C100.36 21 99.5039 20.832 98.7039 20.496C97.9039 20.144 97.1999 19.672 96.5919 19.08C95.9999 18.472 95.5279 17.768 95.1759 16.968C94.8399 16.168 94.6719 15.312 94.6719 14.4ZM101.272 19.896C102.024 19.896 102.736 19.752 103.408 19.464C104.08 19.176 104.664 18.784 105.16 18.288C105.656 17.792 106.048 17.208 106.336 16.536C106.624 15.864 106.768 15.152 106.768 14.4C106.768 13.648 106.624 12.936 106.336 12.264C106.048 11.592 105.656 11.008 105.16 10.512C104.664 10.016 104.08 9.624 103.408 9.336C102.736 9.048 102.024 8.904 101.272 8.904C100.52 8.904 99.8079 9.048 99.1359 9.336C98.4639 9.624 97.8799 10.016 97.3839 10.512C96.8879 11.008 96.4959 11.592 96.2079 12.264C95.9199 12.936 95.7759 13.648 95.7759 14.4C95.7759 15.152 95.9199 15.864 96.2079 16.536C96.4959 17.208 96.8879 17.792 97.3839 18.288C97.8799 18.784 98.4639 19.176 99.1359 19.464C99.8079 19.752 100.52 19.896 101.272 19.896Z" fill="#2C2D31"/>
<path d="M5.504 11.832L4.77164 11.5098L4.76641 11.5222L5.504 11.832ZM6.92 9.744L7.48569 10.3097L7.48569 10.3097L6.92 9.744ZM9.032 8.328L9.34183 9.06569L9.35419 9.06025L9.032 8.328ZM14.168 8.328L13.8458 9.06036L13.8582 9.06559L14.168 8.328ZM16.256 9.744L15.6828 10.3021L15.6903 10.3097L15.6979 10.3172L16.256 9.744ZM17.672 11.832L16.9343 12.1418L16.9397 12.1542L17.672 11.832ZM17.672 16.968L16.9396 16.6458L16.9344 16.6582L17.672 16.968ZM16.256 19.08L15.6903 18.5143L15.6903 18.5143L16.256 19.08ZM14.168 20.496L14.4778 21.2337L14.4902 21.2283L14.168 20.496ZM9.032 20.496L8.70976 21.2284L8.72221 21.2336L9.032 20.496ZM6.92 19.08L6.34682 19.6381L6.35426 19.6457L6.36191 19.6532L6.92 19.08ZM5.504 16.968L4.76631 17.2778L4.77175 17.2902L5.504 16.968ZM15.488 18.288L14.9223 17.7223L14.9223 17.7223L15.488 18.288ZM16.664 16.536L17.3993 16.8511L17.3993 16.8511L16.664 16.536ZM16.664 12.264L17.3993 11.9489L17.3993 11.9489L16.664 12.264ZM15.488 10.512L14.9223 11.0777L14.9223 11.0777L15.488 10.512ZM13.736 9.336L14.0511 8.60068L14.0511 8.60068L13.736 9.336ZM9.464 9.336L9.14887 8.60068L9.14886 8.60068L9.464 9.336ZM7.712 10.512L8.27769 11.0777L8.27769 11.0777L7.712 10.512ZM6.536 16.536L5.80068 16.8511L5.80068 16.8511L6.536 16.536ZM9.464 19.464L9.14886 20.1993L9.14886 20.1993L9.464 19.464ZM5 14.4H5.8C5.8 13.5889 5.94887 12.8387 6.24159 12.1418L5.504 11.832L4.76641 11.5222C4.38713 12.4253 4.2 13.3871 4.2 14.4H5ZM5.504 11.832L6.23625 12.1542C6.55009 11.4409 6.96689 10.8285 7.48569 10.3097L6.92 9.744L6.35431 9.17831C5.68911 9.84351 5.16191 10.6231 4.77175 11.5098L5.504 11.832ZM6.92 9.744L7.48569 10.3097C8.01965 9.77572 8.63653 9.36179 9.34179 9.06559L9.032 8.328L8.72221 7.59041C7.82747 7.9662 7.03635 8.49628 6.35431 9.17831L6.92 9.744ZM9.032 8.328L9.35419 9.06025C10.0482 8.75487 10.794 8.6 11.6 8.6V7.8V7C10.582 7 9.61576 7.19713 8.70981 7.59575L9.032 8.328ZM11.6 7.8V8.6C12.406 8.6 13.1518 8.75487 13.8458 9.06025L14.168 8.328L14.4902 7.59575C13.5842 7.19713 12.618 7 11.6 7V7.8ZM14.168 8.328L13.8582 9.06559C14.5615 9.36099 15.1674 9.77274 15.6828 10.3021L16.256 9.744L16.8292 9.18591C16.1606 8.49926 15.3745 7.96701 14.4778 7.59041L14.168 8.328ZM16.256 9.744L15.6979 10.3172C16.2273 10.8326 16.639 11.4385 16.9344 12.1418L17.672 11.832L18.4096 11.5222C18.033 10.6255 17.5007 9.8394 16.8141 9.17082L16.256 9.744ZM17.672 11.832L16.9397 12.1542C17.2451 12.8482 17.4 13.594 17.4 14.4H18.2H19C19 13.382 18.8029 12.4158 18.4043 11.5098L17.672 11.832ZM18.2 14.4H17.4C17.4 15.206 17.2451 15.9518 16.9397 16.6458L17.672 16.968L18.4043 17.2902C18.8029 16.3842 19 15.418 19 14.4H18.2ZM17.672 16.968L16.9344 16.6582C16.6382 17.3635 16.2243 17.9803 15.6903 18.5143L16.256 19.08L16.8217 19.6457C17.5037 18.9637 18.0338 18.1725 18.4096 17.2778L17.672 16.968ZM16.256 19.08L15.6903 18.5143C15.1715 19.0331 14.5591 19.4499 13.8458 19.7637L14.168 20.496L14.4902 21.2283C15.3769 20.8381 16.1565 20.3109 16.8217 19.6457L16.256 19.08ZM14.168 20.496L13.8582 19.7584C13.1613 20.0511 12.4111 20.2 11.6 20.2V21V21.8C12.6129 21.8 13.5747 21.6129 14.4778 21.2336L14.168 20.496ZM11.6 21V20.2C10.7889 20.2 10.0387 20.0511 9.34179 19.7584L9.032 20.496L8.72221 21.2336C9.62527 21.6129 10.5871 21.8 11.6 21.8V21ZM9.032 20.496L9.35419 19.7637C8.63903 19.4491 8.01554 19.0301 7.47809 18.5068L6.92 19.08L6.36191 19.6532C7.04046 20.3139 7.82497 20.8389 8.70981 21.2283L9.032 20.496ZM6.92 19.08L7.49318 18.5219C6.96987 17.9845 6.55092 17.361 6.23625 16.6458L5.504 16.968L4.77175 17.2902C5.16108 18.175 5.68613 18.9595 6.34682 19.6381L6.92 19.08ZM5.504 16.968L6.24159 16.6582C5.94887 15.9613 5.8 15.2111 5.8 14.4H5H4.2C4.2 15.4129 4.38713 16.3747 4.76641 17.2778L5.504 16.968ZM11.6 19.896V20.696C12.4572 20.696 13.2767 20.5312 14.0511 20.1993L13.736 19.464L13.4209 18.7287C12.8513 18.9728 12.2468 19.096 11.6 19.096V19.896ZM13.736 19.464L14.0511 20.1993C14.8127 19.8729 15.4827 19.4247 16.0537 18.8537L15.488 18.288L14.9223 17.7223C14.5013 18.1433 14.0033 18.4791 13.4209 18.7287L13.736 19.464ZM15.488 18.288L16.0537 18.8537C16.6247 18.2827 17.0729 17.6127 17.3993 16.8511L16.664 16.536L15.9287 16.2209C15.6791 16.8033 15.3433 17.3013 14.9223 17.7223L15.488 18.288ZM16.664 16.536L17.3993 16.8511C17.7312 16.0767 17.896 15.2572 17.896 14.4H17.096H16.296C16.296 15.0468 16.1728 15.6513 15.9287 16.2209L16.664 16.536ZM17.096 14.4H17.896C17.896 13.5428 17.7312 12.7233 17.3993 11.9489L16.664 12.264L15.9287 12.5791C16.1728 13.1487 16.296 13.7532 16.296 14.4H17.096ZM16.664 12.264L17.3993 11.9489C17.0729 11.1873 16.6247 10.5173 16.0537 9.94631L15.488 10.512L14.9223 11.0777C15.3433 11.4987 15.6791 11.9967 15.9287 12.5791L16.664 12.264ZM15.488 10.512L16.0537 9.94631C15.4827 9.37532 14.8127 8.92705 14.0511 8.60068L13.736 9.336L13.4209 10.0713C14.0033 10.3209 14.5013 10.6567 14.9223 11.0777L15.488 10.512ZM13.736 9.336L14.0511 8.60068C13.2767 8.26877 12.4572 8.104 11.6 8.104V8.904V9.704C12.2468 9.704 12.8513 9.82722 13.4209 10.0713L13.736 9.336ZM11.6 8.904V8.104C10.7428 8.104 9.92332 8.26877 9.14887 8.60068L9.464 9.336L9.77914 10.0713C10.3487 9.82722 10.9532 9.704 11.6 9.704V8.904ZM9.464 9.336L9.14886 8.60068C8.38734 8.92705 7.71731 9.37532 7.14631 9.94631L7.712 10.512L8.27769 11.0777C8.69869 10.6567 9.19666 10.3209 9.77914 10.0713L9.464 9.336ZM7.712 10.512L7.14631 9.94631C6.57532 10.5173 6.12705 11.1873 5.80068 11.9489L6.536 12.264L7.27132 12.5791C7.52095 11.9967 7.85668 11.4987 8.27769 11.0777L7.712 10.512ZM6.536 12.264L5.80068 11.9489C5.46878 12.7233 5.304 13.5428 5.304 14.4H6.104H6.904C6.904 13.7532 7.02723 13.1487 7.27132 12.5791L6.536 12.264ZM6.104 14.4H5.304C5.304 15.2572 5.46878 16.0767 5.80068 16.8511L6.536 16.536L7.27132 16.2209C7.02723 15.6513 6.904 15.0468 6.904 14.4H6.104ZM6.536 16.536L5.80068 16.8511C6.12705 17.6127 6.57532 18.2827 7.14631 18.8537L7.712 18.288L8.27769 17.7223C7.85668 17.3013 7.52095 16.8033 7.27132 16.2209L6.536 16.536ZM7.712 18.288L7.14631 18.8537C7.71731 19.4247 8.38734 19.8729 9.14886 20.1993L9.464 19.464L9.77914 18.7287C9.19666 18.4791 8.69869 18.1433 8.27769 17.7223L7.712 18.288ZM9.464 19.464L9.14886 20.1993C9.92332 20.5312 10.7428 20.696 11.6 20.696V19.896V19.096C10.9532 19.096 10.3487 18.9728 9.77914 18.7287L9.464 19.464ZM32.1892 10.752L31.5217 11.193L32.9892 13.414V10.752H32.1892ZM32.6932 5.808L31.9608 5.48576L31.9556 5.49821L32.6932 5.808ZM34.1092 3.72L33.5435 3.15431L33.5435 3.15431L34.1092 3.72ZM36.2212 2.304L36.531 3.04169L36.5434 3.03625L36.2212 2.304ZM39.3412 1.776H40.1412V0.975999H39.3412V1.776ZM39.3412 2.88V3.68H40.1412V2.88H39.3412ZM34.9012 4.488L35.4669 5.05368L35.4669 5.05368L34.9012 4.488ZM32.7652 16.968L32.0328 16.6458L32.0276 16.6582L32.7652 16.968ZM31.3492 19.08L30.7835 18.5143L30.7835 18.5143L31.3492 19.08ZM29.2612 20.496L29.5763 21.2313L29.5834 21.2283L29.2612 20.496ZM24.1492 20.496L23.827 21.2284L23.8394 21.2336L24.1492 20.496ZM22.0372 19.08L21.464 19.6381L21.4715 19.6457L21.4791 19.6532L22.0372 19.08ZM20.6212 16.968L19.8835 17.2778L19.8889 17.2902L20.6212 16.968ZM20.6212 11.856L19.8889 11.5338L19.8859 11.5409L20.6212 11.856ZM22.0372 9.768L22.6029 10.3337L22.6029 10.3337L22.0372 9.768ZM24.1492 8.352L24.459 9.08969L24.4714 9.08425L24.1492 8.352ZM29.8612 8.616L29.4707 9.31422L29.4757 9.31697L29.8612 8.616ZM21.6532 16.536L20.9179 16.8511L20.9179 16.8511L21.6532 16.536ZM24.5812 19.464L24.2661 20.1993L24.2661 20.1993L24.5812 19.464ZM28.8292 19.464L28.514 18.7287L28.5076 18.7315L28.8292 19.464ZM31.7572 16.536L32.4925 16.8511L32.4925 16.8511L31.7572 16.536ZM31.7572 12.288L31.0218 12.6031L31.0247 12.6096L31.7572 12.288ZM28.8292 9.36L28.5076 10.0925L28.5141 10.0953L28.8292 9.36ZM24.5812 9.36L24.2661 8.62468L24.2661 8.62468L24.5812 9.36ZM21.6532 12.288L22.3857 12.6096L22.3885 12.6031L21.6532 12.288ZM32.1892 10.752H32.9892V8.376H32.1892H31.3892V10.752H32.1892ZM32.1892 8.376H32.9892C32.9892 7.56486 33.1381 6.81473 33.4308 6.11779L32.6932 5.808L31.9556 5.49821C31.5763 6.40127 31.3892 7.36314 31.3892 8.376H32.1892ZM32.6932 5.808L33.4254 6.13019C33.7393 5.41693 34.1561 4.80448 34.6749 4.28568L34.1092 3.72L33.5435 3.15431C32.8783 3.81951 32.3511 4.59907 31.9609 5.48581L32.6932 5.808ZM34.1092 3.72L34.6749 4.28569C35.2088 3.75172 35.8257 3.33779 36.531 3.04158L36.2212 2.304L35.9114 1.56641C35.0167 1.94221 34.2255 2.47228 33.5435 3.15431L34.1092 3.72ZM36.2212 2.304L36.5434 3.03625C37.2374 2.73087 37.9832 2.576 38.7892 2.576V1.776V0.975999C37.7712 0.975999 36.8049 1.17313 35.899 1.57175L36.2212 2.304ZM38.7892 1.776V2.576H39.3412V1.776V0.975999H38.7892V1.776ZM39.3412 1.776H38.5412V2.88H39.3412H40.1412V1.776H39.3412ZM39.3412 2.88V2.08H38.7892V2.88V3.68H39.3412V2.88ZM38.7892 2.88V2.08C37.932 2.08 37.1125 2.24477 36.3381 2.57668L36.6532 3.312L36.9683 4.04731C37.5379 3.80322 38.1424 3.68 38.7892 3.68V2.88ZM36.6532 3.312L36.3381 2.57668C35.5765 2.90305 34.9065 3.35132 34.3355 3.92231L34.9012 4.488L35.4669 5.05368C35.8879 4.63268 36.3858 4.29695 36.9683 4.04731L36.6532 3.312ZM34.9012 4.488L34.3355 3.92231C33.7645 4.49331 33.3162 5.16334 32.9899 5.92486L33.7252 6.24L34.4605 6.55514C34.7101 5.97266 35.0459 5.47469 35.4669 5.05368L34.9012 4.488ZM33.7252 6.24L32.9899 5.92486C32.658 6.69932 32.4932 7.51883 32.4932 8.376H33.2932H34.0932C34.0932 7.72917 34.2164 7.12468 34.4605 6.55514L33.7252 6.24ZM33.2932 8.376H32.4932V14.4H33.2932H34.0932V8.376H33.2932ZM33.2932 14.4H32.4932C32.4932 15.206 32.3383 15.9518 32.0329 16.6458L32.7652 16.968L33.4974 17.2902C33.8961 16.3842 34.0932 15.418 34.0932 14.4H33.2932ZM32.7652 16.968L32.0276 16.6582C31.7314 17.3635 31.3175 17.9803 30.7835 18.5143L31.3492 19.08L31.9149 19.6457C32.5969 18.9637 33.127 18.1725 33.5028 17.2778L32.7652 16.968ZM31.3492 19.08L30.7835 18.5143C30.2647 19.0331 29.6523 19.4499 28.939 19.7637L29.2612 20.496L29.5834 21.2283C30.4701 20.8381 31.2497 20.3109 31.9149 19.6457L31.3492 19.08ZM29.2612 20.496L28.9461 19.7607C28.2684 20.0511 27.5284 20.2 26.7172 20.2V21V21.8C27.7299 21.8 28.686 21.6129 29.5763 21.2313L29.2612 20.496ZM26.7172 21V20.2C25.906 20.2 25.1559 20.0511 24.459 19.7584L24.1492 20.496L23.8394 21.2336C24.7425 21.6129 25.7043 21.8 26.7172 21.8V21ZM24.1492 20.496L24.4714 19.7637C23.7562 19.4491 23.1327 19.0301 22.5953 18.5068L22.0372 19.08L21.4791 19.6532C22.1576 20.3139 22.9422 20.8389 23.827 21.2283L24.1492 20.496ZM22.0372 19.08L22.6104 18.5219C22.0871 17.9845 21.6681 17.361 21.3534 16.6458L20.6212 16.968L19.8889 17.2902C20.2783 18.175 20.8033 18.9595 21.464 19.6381L22.0372 19.08ZM20.6212 16.968L21.3588 16.6582C21.0661 15.9613 20.9172 15.2111 20.9172 14.4H20.1172H19.3172C19.3172 15.4129 19.5043 16.3747 19.8836 17.2778L20.6212 16.968ZM20.1172 14.4H20.9172C20.9172 13.5887 21.0661 12.8488 21.3565 12.1711L20.6212 11.856L19.8859 11.5409C19.5043 12.4312 19.3172 13.3873 19.3172 14.4H20.1172ZM20.6212 11.856L21.3534 12.1782C21.6673 11.4649 22.0841 10.8525 22.6029 10.3337L22.0372 9.768L21.4715 9.20231C20.8063 9.86751 20.2791 10.6471 19.8889 11.5338L20.6212 11.856ZM22.0372 9.768L22.6029 10.3337C23.1368 9.79972 23.7537 9.38579 24.459 9.08959L24.1492 8.352L23.8394 7.61441C22.9447 7.9902 22.1535 8.52028 21.4715 9.20231L22.0372 9.768ZM24.1492 8.352L24.4714 9.08425C25.1654 8.77887 25.9112 8.624 26.7172 8.624V7.824V7.024C25.6992 7.024 24.7329 7.22113 23.827 7.61975L24.1492 8.352ZM26.7172 7.824V8.624C27.7416 8.624 28.6538 8.8573 29.4707 9.31421L29.8612 8.616L30.2517 7.91779C29.1806 7.3187 27.9967 7.024 26.7172 7.024V7.824ZM29.8612 8.616L29.4757 9.31697C30.3244 9.78377 31.0027 10.4075 31.5217 11.193L32.1892 10.752L32.8567 10.311C32.1917 9.30451 31.318 8.50423 30.2467 7.91503L29.8612 8.616ZM21.2212 14.4H20.4212C20.4212 15.2572 20.586 16.0767 20.9179 16.8511L21.6532 16.536L22.3885 16.2209C22.1444 15.6513 22.0212 15.0468 22.0212 14.4H21.2212ZM21.6532 16.536L20.9179 16.8511C21.2442 17.6127 21.6925 18.2827 22.2635 18.8537L22.8292 18.288L23.3949 17.7223C22.9739 17.3013 22.6381 16.8033 22.3885 16.2209L21.6532 16.536ZM22.8292 18.288L22.2635 18.8537C22.8345 19.4247 23.5045 19.8729 24.2661 20.1993L24.5812 19.464L24.8963 18.7287C24.3138 18.4791 23.8159 18.1433 23.3949 17.7223L22.8292 18.288ZM24.5812 19.464L24.2661 20.1993C25.0405 20.5312 25.86 20.696 26.7172 20.696V19.896V19.096C26.0704 19.096 25.4659 18.9728 24.8963 18.7287L24.5812 19.464ZM26.7172 19.896V20.696C27.5743 20.696 28.3884 20.5312 29.1508 20.1965L28.8292 19.464L28.5076 18.7315C27.958 18.9728 27.3641 19.096 26.7172 19.096V19.896ZM28.8292 19.464L29.1443 20.1993C29.9058 19.8729 30.5759 19.4247 31.1469 18.8537L30.5812 18.288L30.0155 17.7223C29.5945 18.1433 29.0965 18.4791 28.5141 18.7287L28.8292 19.464ZM30.5812 18.288L31.1469 18.8537C31.7179 18.2827 32.1661 17.6127 32.4925 16.8511L31.7572 16.536L31.0219 16.2209C30.7722 16.8033 30.4365 17.3013 30.0155 17.7223L30.5812 18.288ZM31.7572 16.536L32.4925 16.8511C32.8244 16.0767 32.9892 15.2572 32.9892 14.4H32.1892H31.3892C31.3892 15.0468 31.266 15.6513 31.0219 16.2209L31.7572 16.536ZM32.1892 14.4H32.9892C32.9892 13.5429 32.8244 12.7288 32.4897 11.9664L31.7572 12.288L31.0247 12.6096C31.266 13.1592 31.3892 13.7531 31.3892 14.4H32.1892ZM31.7572 12.288L32.4925 11.9729C32.1661 11.2113 31.7179 10.5413 31.1469 9.97031L30.5812 10.536L30.0155 11.1017C30.4365 11.5227 30.7722 12.0207 31.0219 12.6031L31.7572 12.288ZM30.5812 10.536L31.1469 9.97031C30.5759 9.39932 29.9058 8.95105 29.1443 8.62468L28.8292 9.36L28.5141 10.0953C29.0965 10.3449 29.5945 10.6807 30.0155 11.1017L30.5812 10.536ZM28.8292 9.36L29.1508 8.62748C28.3884 8.29278 27.5743 8.128 26.7172 8.128V8.928V9.728C27.3641 9.728 27.958 9.85122 28.5076 10.0925L28.8292 9.36ZM26.7172 8.928V8.128C25.86 8.128 25.0405 8.29277 24.2661 8.62468L24.5812 9.36L24.8963 10.0953C25.4659 9.85122 26.0704 9.728 26.7172 9.728V8.928ZM24.5812 9.36L24.2661 8.62468C23.5045 8.95105 22.8345 9.39932 22.2635 9.97031L22.8292 10.536L23.3949 11.1017C23.8159 10.6807 24.3138 10.3449 24.8963 10.0953L24.5812 9.36ZM22.8292 10.536L22.2635 9.97031C21.6925 10.5413 21.2442 11.2113 20.9179 11.9729L21.6532 12.288L22.3885 12.6031C22.6381 12.0207 22.9739 11.5227 23.3949 11.1017L22.8292 10.536ZM21.6532 12.288L20.9207 11.9664C20.586 12.7288 20.4212 13.5429 20.4212 14.4H21.2212H22.0212C22.0212 13.7531 22.1444 13.1592 22.3857 12.6096L21.6532 12.288ZM50.1101 16.968L49.3777 16.6458L49.3725 16.6582L50.1101 16.968ZM48.6941 19.08L49.2597 19.6457L49.2597 19.6457L48.6941 19.08ZM46.6061 20.496L46.2839 19.7637L46.2839 19.7637L46.6061 20.496ZM40.8701 20.232L40.4756 20.9281L40.4845 20.933L40.8701 20.232ZM38.5181 18.072L39.18 17.6228L37.7181 15.4683V18.072H38.5181ZM38.5181 27.072V27.872H39.3181V27.072H38.5181ZM37.4381 27.072H36.6381V27.872H37.4381V27.072ZM37.4381 13.848L36.6416 13.7729L36.6381 13.8103V13.848H37.4381ZM38.1101 11.472L38.8256 11.8298L38.1101 11.472ZM39.5501 9.552L40.0914 10.1411L40.0998 10.1332L39.5501 9.552ZM41.5901 8.256L41.8845 8.99984L41.8912 8.99721L41.8978 8.99446L41.5901 8.256ZM46.6061 8.304L46.2838 9.03636L46.2963 9.04158L46.6061 8.304ZM48.6941 9.72L48.1209 10.2781L48.1283 10.2857L48.136 10.2932L48.6941 9.72ZM50.1101 11.832L49.3703 12.1366L49.374 12.1454L49.3778 12.1542L50.1101 11.832ZM49.1021 12.264L49.8374 11.9489L49.8374 11.9489L49.1021 12.264ZM46.1741 9.336L46.4892 8.60068L46.4892 8.60068L46.1741 9.336ZM41.8781 9.336L41.5629 8.60065L41.5565 8.60348L41.8781 9.336ZM40.1261 10.512L39.5694 9.93734L39.5604 9.94631L40.1261 10.512ZM38.9501 16.536L38.2147 16.8511L38.2147 16.8511L38.9501 16.536ZM40.1261 18.288L39.5603 18.8538L39.5694 18.8626L40.1261 18.288ZM41.8781 19.464L41.5565 20.1965L41.5629 20.1993L41.8781 19.464ZM47.9261 18.288L48.4917 18.8537L48.4917 18.8537L47.9261 18.288ZM49.1021 16.536L49.8374 16.8511L49.8374 16.8511L49.1021 16.536ZM50.6381 14.4H49.8381C49.8381 15.206 49.6832 15.9518 49.3778 16.6458L50.1101 16.968L50.8423 17.2902C51.2409 16.3842 51.4381 15.418 51.4381 14.4H50.6381ZM50.1101 16.968L49.3725 16.6582C49.0763 17.3635 48.6623 17.9803 48.1284 18.5143L48.6941 19.08L49.2597 19.6457C49.9418 18.9637 50.4719 18.1725 50.8476 17.2778L50.1101 16.968ZM48.6941 19.08L48.1284 18.5143C47.6096 19.0331 46.9971 19.4499 46.2839 19.7637L46.6061 20.496L46.9283 21.2283C47.815 20.8381 48.5945 20.3109 49.2597 19.6457L48.6941 19.08ZM46.6061 20.496L46.2839 19.7637C45.5898 20.0691 44.8441 20.224 44.0381 20.224V21.024V21.824C45.0561 21.824 46.0223 21.6269 46.9283 21.2283L46.6061 20.496ZM44.0381 21.024V20.224C43.0137 20.224 42.0913 19.9907 41.2556 19.531L40.8701 20.232L40.4845 20.933C41.5688 21.5293 42.7584 21.824 44.0381 21.824V21.024ZM40.8701 20.232L41.2645 19.536C40.4093 19.0514 39.7177 18.4151 39.18 17.6228L38.5181 18.072L37.8561 18.5212C38.5345 19.5209 39.4108 20.3246 40.4757 20.928L40.8701 20.232ZM38.5181 18.072H37.7181V27.072H38.5181H39.3181V18.072H38.5181ZM38.5181 27.072V26.272H37.4381V27.072V27.872H38.5181V27.072ZM37.4381 27.072H38.2381V13.848H37.4381H36.6381V27.072H37.4381ZM37.4381 13.848L38.2345 13.9231C38.3056 13.17 38.5034 12.4743 38.8256 11.8298L38.1101 11.472L37.3945 11.1142C36.9808 11.9417 36.7306 12.83 36.6416 13.7729L37.4381 13.848ZM38.1101 11.472L38.8256 11.8298C39.1511 11.1787 39.5727 10.6176 40.0914 10.1411L39.5501 9.552L39.0088 8.96294C38.3434 9.57435 37.805 10.2933 37.3945 11.1142L38.1101 11.472ZM39.5501 9.552L40.0998 10.1332C40.6168 9.64412 41.2099 9.26689 41.8845 8.99984L41.5901 8.256L41.2956 7.51215C40.4343 7.85311 39.6673 8.33988 39.0003 8.97082L39.5501 9.552ZM41.5901 8.256L41.8978 8.99446C42.5645 8.71665 43.2755 8.576 44.0381 8.576V7.776V6.976C43.0726 6.976 42.1516 7.15535 41.2824 7.51754L41.5901 8.256ZM44.0381 7.776V8.576C44.8441 8.576 45.5898 8.73087 46.2839 9.03625L46.6061 8.304L46.9283 7.57175C46.0223 7.17313 45.0561 6.976 44.0381 6.976V7.776ZM46.6061 8.304L46.2963 9.04158C46.9996 9.33699 47.6055 9.74874 48.1209 10.2781L48.6941 9.72L49.2672 9.16191C48.5987 8.47526 47.8125 7.94301 46.9158 7.56641L46.6061 8.304ZM48.6941 9.72L48.136 10.2932C48.6626 10.8059 49.0742 11.4175 49.3703 12.1366L50.1101 11.832L50.8498 11.5274C50.4739 10.6145 49.9415 9.81806 49.2522 9.14682L48.6941 9.72ZM50.1101 11.832L49.3778 12.1542C49.6832 12.8482 49.8381 13.594 49.8381 14.4H50.6381H51.4381C51.4381 13.382 51.2409 12.4158 50.8423 11.5098L50.1101 11.832ZM49.5341 14.4H50.3341C50.3341 13.5428 50.1693 12.7233 49.8374 11.9489L49.1021 12.264L48.3667 12.5791C48.6108 13.1487 48.7341 13.7532 48.7341 14.4H49.5341ZM49.1021 12.264L49.8374 11.9489C49.511 11.1873 49.0627 10.5173 48.4917 9.94631L47.9261 10.512L47.3604 11.0777C47.7814 11.4987 48.1171 11.9967 48.3667 12.5791L49.1021 12.264ZM47.9261 10.512L48.4917 9.94631C47.9208 9.37532 47.2507 8.92705 46.4892 8.60068L46.1741 9.336L45.8589 10.0713C46.4414 10.3209 46.9394 10.6567 47.3604 11.0777L47.9261 10.512ZM46.1741 9.336L46.4892 8.60068C45.7147 8.26877 44.8952 8.104 44.0381 8.104V8.904V9.704C44.6849 9.704 45.2894 9.82722 45.8589 10.0713L46.1741 9.336ZM44.0381 8.904V8.104C43.1673 8.104 42.3395 8.26787 41.5629 8.60068L41.8781 9.336L42.1932 10.0713C42.7606 9.82813 43.3728 9.704 44.0381 9.704V8.904ZM41.8781 9.336L41.5565 8.60348C40.8138 8.92953 40.1501 9.37487 39.5694 9.93741L40.1261 10.512L40.6827 11.0866C41.126 10.6571 41.6303 10.3185 42.1997 10.0685L41.8781 9.336ZM40.1261 10.512L39.5604 9.94631C38.9894 10.5173 38.5411 11.1873 38.2147 11.9489L38.9501 12.264L39.6854 12.5791C39.935 11.9967 40.2707 11.4987 40.6917 11.0777L40.1261 10.512ZM38.9501 12.264L38.2147 11.9489C37.8828 12.7233 37.7181 13.5428 37.7181 14.4H38.5181H39.3181C39.3181 13.7532 39.4413 13.1487 39.6854 12.5791L38.9501 12.264ZM38.5181 14.4H37.7181C37.7181 15.2572 37.8828 16.0767 38.2147 16.8511L38.9501 16.536L39.6854 16.2209C39.4413 15.6513 39.3181 15.0468 39.3181 14.4H38.5181ZM38.9501 16.536L38.2147 16.8511C38.5411 17.6127 38.9894 18.2827 39.5604 18.8537L40.1261 18.288L40.6917 17.7223C40.2707 17.3013 39.935 16.8033 39.6854 16.2209L38.9501 16.536ZM40.1261 18.288L39.5694 18.8626C40.1501 19.4251 40.8138 19.8705 41.5565 20.1965L41.8781 19.464L42.1997 18.7315C41.6303 18.4815 41.126 18.1429 40.6827 17.7134L40.1261 18.288ZM41.8781 19.464L41.5629 20.1993C42.3395 20.5321 43.1673 20.696 44.0381 20.696V19.896V19.096C43.3728 19.096 42.7606 18.9719 42.1932 18.7287L41.8781 19.464ZM44.0381 19.896V20.696C44.8952 20.696 45.7147 20.5312 46.4892 20.1993L46.1741 19.464L45.8589 18.7287C45.2894 18.9728 44.6849 19.096 44.0381 19.096V19.896ZM46.1741 19.464L46.4892 20.1993C47.2507 19.8729 47.9208 19.4247 48.4917 18.8537L47.9261 18.288L47.3604 17.7223C46.9394 18.1433 46.4414 18.4791 45.8589 18.7287L46.1741 19.464ZM47.9261 18.288L48.4917 18.8537C49.0627 18.2827 49.511 17.6127 49.8374 16.8511L49.1021 16.536L48.3667 16.2209C48.1171 16.8033 47.7814 17.3013 47.3604 17.7223L47.9261 18.288ZM49.1021 16.536L49.8374 16.8511C50.1693 16.0767 50.3341 15.2572 50.3341 14.4H49.5341H48.7341C48.7341 15.0468 48.6108 15.6513 48.3667 16.2209L49.1021 16.536ZM64.6267 13.872L64.9094 13.1236L63.8267 12.7146V13.872H64.6267ZM65.7067 14.28H66.5067V13.727L65.9894 13.5316L65.7067 14.28ZM65.7067 21V21.8H66.5067V21H65.7067ZM64.6267 21H63.8267V21.8H64.6267V21ZM56.5627 20.496L56.235 21.2258L56.2439 21.2298L56.2529 21.2336L56.5627 20.496ZM54.4747 19.08L53.9015 19.6381L53.909 19.6457L53.9166 19.6532L54.4747 19.08ZM53.0587 16.992L52.3211 17.3018L52.3249 17.3108L52.3289 17.3197L53.0587 16.992ZM53.0587 11.856L52.3263 11.5338L52.3211 11.5462L53.0587 11.856ZM54.4747 9.768L55.0404 10.3337L55.0404 10.3337L54.4747 9.768ZM56.5627 8.352L56.8778 9.08735L56.8849 9.08425L56.5627 8.352ZM61.6987 8.352L61.3765 9.08436L61.3889 9.08959L61.6987 8.352ZM63.7867 9.768L63.2135 10.3261L63.221 10.3337L63.2286 10.3412L63.7867 9.768ZM65.2027 11.856L64.465 12.1658L64.4704 12.1782L65.2027 11.856ZM65.2027 16.992L64.4704 16.6698L64.4674 16.6769L65.2027 16.992ZM63.7867 19.08L63.221 18.5143L63.221 18.5143L63.7867 19.08ZM61.6987 20.496L62.0085 21.2337L62.0209 21.2283L61.6987 20.496ZM56.9947 9.36L56.6795 8.62466L56.6731 8.62748L56.9947 9.36ZM54.0907 12.288L54.826 12.6031L54.826 12.6031L54.0907 12.288ZM54.0907 16.56L53.3553 16.8751L53.3582 16.8816L54.0907 16.56ZM56.9947 19.464L56.6731 20.1965L56.6796 20.1993L56.9947 19.464ZM61.2667 19.464L60.9516 18.7287L60.9516 18.7287L61.2667 19.464ZM64.1947 16.56L64.9272 16.8816L64.93 16.8751L64.1947 16.56ZM64.1947 12.288L63.4594 12.6031L63.4594 12.6031L64.1947 12.288ZM61.2667 9.36L60.9516 10.0953L60.9516 10.0953L61.2667 9.36ZM64.6267 13.872L64.344 14.6204L65.424 15.0284L65.7067 14.28L65.9894 13.5316L64.9094 13.1236L64.6267 13.872ZM65.7067 14.28H64.9067V21H65.7067H66.5067V14.28H65.7067ZM65.7067 21V20.2H64.6267V21V21.8H65.7067V21ZM64.6267 21H65.4267V13.872H64.6267H63.8267V21H64.6267ZM59.1307 21V20.2C58.3195 20.2 57.5694 20.0511 56.8725 19.7584L56.5627 20.496L56.2529 21.2336C57.156 21.6129 58.1178 21.8 59.1307 21.8V21ZM56.5627 20.496L56.8904 19.7662C56.1906 19.452 55.5729 19.0327 55.0328 18.5068L54.4747 19.08L53.9166 19.6532C54.5925 20.3113 55.3667 20.836 56.235 21.2258L56.5627 20.496ZM54.4747 19.08L55.0479 18.5219C54.522 17.9818 54.1027 17.3641 53.7885 16.6643L53.0587 16.992L52.3289 17.3197C52.7187 18.1879 53.2434 18.9622 53.9015 19.6381L54.4747 19.08ZM53.0587 16.992L53.7963 16.6822C53.5036 15.9853 53.3547 15.2351 53.3547 14.424H52.5547H51.7547C51.7547 15.4369 51.9418 16.3987 52.3211 17.3018L53.0587 16.992ZM52.5547 14.424H53.3547C53.3547 13.6129 53.5036 12.8627 53.7963 12.1658L53.0587 11.856L52.3211 11.5462C51.9418 12.4493 51.7547 13.4111 51.7547 14.424H52.5547ZM53.0587 11.856L53.7909 12.1782C54.1048 11.4649 54.5216 10.8525 55.0404 10.3337L54.4747 9.768L53.909 9.20231C53.2438 9.86751 52.7166 10.6471 52.3264 11.5338L53.0587 11.856ZM54.4747 9.768L55.0404 10.3337C55.577 9.79706 56.1881 9.38289 56.8778 9.08732L56.5627 8.352L56.2476 7.61668C55.3692 7.9931 54.5884 8.52294 53.909 9.20231L54.4747 9.768ZM56.5627 8.352L56.8849 9.08425C57.5789 8.77887 58.3247 8.624 59.1307 8.624V7.824V7.024C58.1127 7.024 57.1464 7.22113 56.2405 7.61975L56.5627 8.352ZM59.1307 7.824V8.624C59.9367 8.624 60.6824 8.77887 61.3765 9.08425L61.6987 8.352L62.0209 7.61975C61.1149 7.22113 60.1487 7.024 59.1307 7.024V7.824ZM61.6987 8.352L61.3889 9.08959C62.0922 9.38499 62.6981 9.79674 63.2135 10.3261L63.7867 9.768L64.3599 9.20991C63.6913 8.52326 62.9051 7.99101 62.0085 7.61441L61.6987 8.352ZM63.7867 9.768L63.2286 10.3412C63.7579 10.8566 64.1697 11.4625 64.4651 12.1658L65.2027 11.856L65.9403 11.5462C65.5637 10.6495 65.0314 9.8634 64.3448 9.19482L63.7867 9.768ZM65.2027 11.856L64.4704 12.1782C64.7758 12.8722 64.9307 13.618 64.9307 14.424H65.7307H66.5307C66.5307 13.406 66.3336 12.4398 65.9349 11.5338L65.2027 11.856ZM65.7307 14.424H64.9307C64.9307 15.23 64.7758 15.9758 64.4704 16.6698L65.2027 16.992L65.9349 17.3142C66.3336 16.4082 66.5307 15.442 66.5307 14.424H65.7307ZM65.2027 16.992L64.4674 16.6769C64.1718 17.3665 63.7576 17.9777 63.221 18.5143L63.7867 19.08L64.3524 19.6457C65.0317 18.9663 65.5616 18.1855 65.938 17.3071L65.2027 16.992ZM63.7867 19.08L63.221 18.5143C62.7022 19.0331 62.0898 19.4499 61.3765 19.7637L61.6987 20.496L62.0209 21.2283C62.9076 20.8381 63.6872 20.3109 64.3524 19.6457L63.7867 19.08ZM61.6987 20.496L61.3889 19.7584C60.692 20.0511 59.9418 20.2 59.1307 20.2V21V21.8C60.1435 21.8 61.1054 21.6129 62.0085 21.2336L61.6987 20.496ZM59.1307 8.928V8.128C58.2735 8.128 57.454 8.29277 56.6796 8.62468L56.9947 9.36L57.3098 10.0953C57.8794 9.85122 58.4839 9.728 59.1307 9.728V8.928ZM56.9947 9.36L56.6731 8.62748C55.9281 8.95457 55.2688 9.4025 54.701 9.97031L55.2667 10.536L55.8324 11.1017C56.2566 10.6775 56.7493 10.3414 57.3163 10.0925L56.9947 9.36ZM55.2667 10.536L54.701 9.97031C54.13 10.5413 53.6817 11.2113 53.3554 11.9729L54.0907 12.288L54.826 12.6031C55.0756 12.0207 55.4114 11.5227 55.8324 11.1017L55.2667 10.536ZM54.0907 12.288L53.3554 11.9729C53.0235 12.7473 52.8587 13.5668 52.8587 14.424H53.6587H54.4587C54.4587 13.7772 54.5819 13.1727 54.826 12.6031L54.0907 12.288ZM53.6587 14.424H52.8587C52.8587 15.2812 53.0235 16.1007 53.3554 16.8751L54.0907 16.56L54.826 16.2449C54.5819 15.6753 54.4587 15.0708 54.4587 14.424H53.6587ZM54.0907 16.56L53.3582 16.8816C53.6853 17.6266 54.1332 18.2859 54.701 18.8537L55.2667 18.288L55.8324 17.7223C55.4082 17.2981 55.0721 16.8054 54.8232 16.2384L54.0907 16.56ZM55.2667 18.288L54.701 18.8537C55.2688 19.4215 55.9281 19.8694 56.6731 20.1965L56.9947 19.464L57.3163 18.7315C56.7493 18.4826 56.2566 18.1465 55.8324 17.7223L55.2667 18.288ZM56.9947 19.464L56.6796 20.1993C57.454 20.5312 58.2735 20.696 59.1307 20.696V19.896V19.096C58.4839 19.096 57.8794 18.9728 57.3098 18.7287L56.9947 19.464ZM59.1307 19.896V20.696C59.9879 20.696 60.8074 20.5312 61.5818 20.1993L61.2667 19.464L60.9516 18.7287C60.382 18.9728 59.7775 19.096 59.1307 19.096V19.896ZM61.2667 19.464L61.5818 20.1993C62.3433 19.8729 63.0134 19.4247 63.5844 18.8537L63.0187 18.288L62.453 17.7223C62.032 18.1433 61.534 18.4791 60.9516 18.7287L61.2667 19.464ZM63.0187 18.288L63.5844 18.8537C64.1522 18.2859 64.6001 17.6266 64.9272 16.8816L64.1947 16.56L63.4622 16.2384C63.2133 16.8054 62.8772 17.2981 62.453 17.7223L63.0187 18.288ZM64.1947 16.56L64.93 16.8751C65.2619 16.1007 65.4267 15.2812 65.4267 14.424H64.6267H63.8267C63.8267 15.0708 63.7035 15.6753 63.4594 16.2449L64.1947 16.56ZM64.6267 14.424H65.4267C65.4267 13.5668 65.2619 12.7473 64.93 11.9729L64.1947 12.288L63.4594 12.6031C63.7035 13.1727 63.8267 13.7772 63.8267 14.424H64.6267ZM64.1947 12.288L64.93 11.9729C64.6036 11.2113 64.1554 10.5413 63.5844 9.97031L63.0187 10.536L62.453 11.1017C62.874 11.5227 63.2097 12.0207 63.4594 12.6031L64.1947 12.288ZM63.0187 10.536L63.5844 9.97031C63.0134 9.39932 62.3433 8.95105 61.5818 8.62468L61.2667 9.36L60.9516 10.0953C61.534 10.3449 62.032 10.6807 62.453 11.1017L63.0187 10.536ZM61.2667 9.36L61.5818 8.62468C60.8074 8.29277 59.9879 8.128 59.1307 8.128V8.928V9.728C59.7775 9.728 60.382 9.85122 60.9516 10.0953L61.2667 9.36ZM76.3604 10.416L75.6231 10.7264L75.6231 10.7264L76.3604 10.416ZM75.8084 9.624L75.2236 10.1699L75.2424 10.19L75.2626 10.2088L75.8084 9.624ZM67.6484 8.88H66.8484V9.68H67.6484V8.88ZM67.6484 7.824V7.024H66.8484V7.824H67.6484ZM75.4484 8.112L75.1235 8.84305L75.135 8.84814L75.1466 8.85287L75.4484 8.112ZM76.5764 8.856L76.0108 9.42168L76.0176 9.42858L76.0247 9.43531L76.5764 8.856ZM77.3444 9.984L76.6036 10.2858L76.6083 10.2975L76.6134 10.3089L77.3444 9.984ZM77.1764 13.128L77.8697 13.5272L77.8697 13.5272L77.1764 13.128ZM75.9524 14.4L75.5284 13.7216L74.443 14.4L75.5284 15.0784L75.9524 14.4ZM77.1764 15.672L76.4831 16.0712L76.4876 16.079L76.4923 16.0866L77.1764 15.672ZM77.3684 18.816L76.6374 18.4911L76.6323 18.5025L76.6276 18.5142L77.3684 18.816ZM76.6244 19.944L76.0588 19.3783L76.0588 19.3783L76.6244 19.944ZM75.4964 20.712L75.8213 21.443L75.8213 21.443L75.4964 20.712ZM67.6964 21H66.8964V21.8H67.6964V21ZM67.6964 19.92V19.12H66.8964V19.92H67.6964ZM76.3844 18.408L77.1217 18.7184L77.1217 18.7184L76.3844 18.408ZM76.3844 16.488L75.6338 16.7646L75.6428 16.7891L75.6534 16.8129L76.3844 16.488ZM75.8804 15.696L75.2759 16.2199L75.2946 16.2415L75.3148 16.2617L75.8804 15.696ZM75.1124 15.144L74.7875 15.875L74.7947 15.8782L74.802 15.8813L75.1124 15.144ZM71.9684 14.952H71.1684V15.752H71.9684V14.952ZM71.9684 13.872V13.072H71.1684V13.872H71.9684ZM75.1124 13.68L75.4373 14.411L75.454 14.4037L75.4702 14.3955L75.1124 13.68ZM75.8564 13.128L75.2908 12.5623L75.2803 12.5728L75.2702 12.5836L75.8564 13.128ZM76.3604 12.336L75.6231 12.0256L75.6161 12.0423L75.6098 12.0594L76.3604 12.336ZM76.5524 11.376H77.3524C77.3524 10.9354 77.2679 10.5097 77.0977 10.1056L76.3604 10.416L75.6231 10.7264C75.709 10.9303 75.7524 11.1446 75.7524 11.376H76.5524ZM76.3604 10.416L77.0977 10.1056C76.9262 9.69812 76.6771 9.34048 76.3543 9.03916L75.8084 9.624L75.2626 10.2088C75.4197 10.3555 75.5387 10.5259 75.6231 10.7264L76.3604 10.416ZM75.8084 9.624L76.3933 9.07814C76.092 8.7553 75.7343 8.50624 75.3269 8.33469L75.0164 9.072L74.706 9.80931C74.9066 9.89376 75.0769 10.0127 75.2236 10.1699L75.8084 9.624ZM75.0164 9.072L75.3269 8.33469C74.9228 8.16453 74.497 8.08 74.0564 8.08V8.88V9.68C74.2879 9.68 74.5021 9.72347 74.706 9.80931L75.0164 9.072ZM74.0564 8.88V8.08H67.6484V8.88V9.68H74.0564V8.88ZM67.6484 8.88H68.4484V7.824H67.6484H66.8484V8.88H67.6484ZM67.6484 7.824V8.624H74.0564V7.824V7.024H67.6484V7.824ZM74.0564 7.824V8.624C74.4461 8.624 74.7988 8.69874 75.1235 8.84305L75.4484 8.112L75.7733 7.38095C75.234 7.14126 74.6588 7.024 74.0564 7.024V7.824ZM75.4484 8.112L75.1466 8.85287C75.483 8.98991 75.7685 9.17942 76.0108 9.42168L76.5764 8.856L77.1421 8.29031C76.7444 7.89258 76.2779 7.58609 75.7503 7.37113L75.4484 8.112ZM76.5764 8.856L76.0247 9.43531C76.2783 9.67681 76.47 9.95809 76.6036 10.2858L77.3444 9.984L78.0853 9.68216C77.8668 9.14591 77.5466 8.67519 77.1282 8.27669L76.5764 8.856ZM77.3444 9.984L76.6134 10.3089C76.7577 10.6336 76.8324 10.9863 76.8324 11.376H77.6324H78.4324C78.4324 10.7737 78.3152 10.1984 78.0755 9.65909L77.3444 9.984ZM77.6324 11.376H76.8324C76.8324 11.8832 76.7137 12.3285 76.4831 12.7288L77.1764 13.128L77.8697 13.5272C78.2472 12.8715 78.4324 12.1488 78.4324 11.376H77.6324ZM77.1764 13.128L76.4831 12.7288C76.244 13.1441 75.9281 13.4718 75.5284 13.7216L75.9524 14.4L76.3764 15.0784C77.0008 14.6882 77.5009 14.1679 77.8697 13.5272L77.1764 13.128ZM75.9524 14.4L75.5284 15.0784C75.9281 15.3282 76.244 15.6559 76.4831 16.0712L77.1764 15.672L77.8697 15.2728C77.5009 14.6321 77.0008 14.1118 76.3764 13.7216L75.9524 14.4ZM77.1764 15.672L76.4923 16.0866C76.7336 16.4849 76.8564 16.9246 76.8564 17.424H77.6564H78.4564C78.4564 16.6434 78.2592 15.9151 77.8606 15.2574L77.1764 15.672ZM77.6564 17.424H76.8564C76.8564 17.8137 76.7817 18.1664 76.6374 18.4911L77.3684 18.816L78.0995 19.1409C78.3392 18.6016 78.4564 18.0263 78.4564 17.424H77.6564ZM77.3684 18.816L76.6276 18.5142C76.4905 18.8505 76.301 19.136 76.0588 19.3783L76.6244 19.944L77.1901 20.5097C77.5879 20.112 77.8943 19.6455 78.1093 19.1178L77.3684 18.816ZM76.6244 19.944L76.0588 19.3783C75.8113 19.6258 75.5179 19.827 75.1715 19.981L75.4964 20.712L75.8213 21.443C76.339 21.213 76.7976 20.9022 77.1901 20.5097L76.6244 19.944ZM75.4964 20.712L75.1715 19.981C74.8468 20.1253 74.4941 20.2 74.1044 20.2V21V21.8C74.7068 21.8 75.282 21.6827 75.8213 21.443L75.4964 20.712ZM74.1044 21V20.2H67.6964V21V21.8H74.1044V21ZM67.6964 21H68.4964V19.92H67.6964H66.8964V21H67.6964ZM67.6964 19.92V20.72H74.1044V19.92V19.12H67.6964V19.92ZM74.1044 19.92V20.72C74.545 20.72 74.9708 20.6355 75.3749 20.4653L75.0644 19.728L74.754 18.9907C74.5501 19.0765 74.3359 19.12 74.1044 19.12V19.92ZM75.0644 19.728L75.3749 20.4653C75.7703 20.2988 76.1219 20.0659 76.4221 19.7657L75.8564 19.2L75.2908 18.6343C75.1429 18.7821 74.9666 18.9012 74.754 18.9907L75.0644 19.728ZM75.8564 19.2L76.4221 19.7657C76.7223 19.4655 76.9553 19.1138 77.1217 18.7184L76.3844 18.408L75.6471 18.0976C75.5576 18.3102 75.4386 18.4865 75.2908 18.6343L75.8564 19.2ZM76.3844 18.408L77.1217 18.7184C77.2938 18.3097 77.3764 17.8754 77.3764 17.424H76.5764H75.7764C75.7764 17.6766 75.731 17.8983 75.6471 18.0976L76.3844 18.408ZM76.5764 17.424H77.3764C77.3764 16.9836 77.2919 16.56 77.1155 16.1631L76.3844 16.488L75.6534 16.8129C75.733 16.992 75.7764 17.1924 75.7764 17.424H76.5764ZM76.3844 16.488L77.1351 16.2114C76.984 15.8014 76.7539 15.4381 76.4461 15.1303L75.8804 15.696L75.3148 16.2617C75.455 16.4019 75.5608 16.5666 75.6338 16.7646L76.3844 16.488ZM75.8804 15.696L76.485 15.1721C76.1935 14.8357 75.8355 14.5804 75.4229 14.4067L75.1124 15.144L74.802 15.8813C74.9974 15.9636 75.1514 16.0763 75.2759 16.2199L75.8804 15.696ZM75.1124 15.144L75.4373 14.413C75.0404 14.2365 74.6168 14.152 74.1764 14.152V14.952V15.752C74.408 15.752 74.6085 15.7955 74.7875 15.875L75.1124 15.144ZM74.1764 14.952V14.152H71.9684V14.952V15.752H74.1764V14.952ZM71.9684 14.952H72.7684V13.872H71.9684H71.1684V14.952H71.9684ZM71.9684 13.872V14.672H74.1764V13.872V13.072H71.9684V13.872ZM74.1764 13.872V14.672C74.6168 14.672 75.0404 14.5875 75.4373 14.411L75.1124 13.68L74.7875 12.949C74.6085 13.0285 74.408 13.072 74.1764 13.072V13.872ZM75.1124 13.68L75.4702 14.3955C75.8394 14.211 76.166 13.9704 76.4427 13.6724L75.8564 13.128L75.2702 12.5836C75.1309 12.7336 74.9615 12.861 74.7547 12.9645L75.1124 13.68ZM75.8564 13.128L76.4221 13.6937C76.7299 13.3859 76.96 13.0226 77.1111 12.6126L76.3604 12.336L75.6098 12.0594C75.5368 12.2574 75.431 12.4221 75.2908 12.5623L75.8564 13.128ZM76.3604 12.336L77.0977 12.6464C77.2679 12.2423 77.3524 11.8166 77.3524 11.376H76.5524H75.7524C75.7524 11.6074 75.709 11.8217 75.6231 12.0256L76.3604 12.336ZM80.6821 14.952V14.152H79.8821V14.952H80.6821ZM80.6821 21V21.8H81.4821V21H80.6821ZM79.5781 21H78.7781V21.8H79.5781V21ZM79.5781 7.824V7.024H78.7781V7.824H79.5781ZM80.6821 7.824H81.4821V7.024H80.6821V7.824ZM80.6821 13.848H79.8821V14.648H80.6821V13.848ZM91.6501 13.848V14.648H92.4501V13.848H91.6501ZM91.6501 7.824V7.024H90.8501V7.824H91.6501ZM92.7541 7.824H93.5541V7.024H92.7541V7.824ZM92.7541 21V21.8H93.5541V21H92.7541ZM91.6501 21H90.8501V21.8H91.6501V21ZM91.6501 14.952H92.4501V14.152H91.6501V14.952ZM80.6821 14.952H79.8821V21H80.6821H81.4821V14.952H80.6821ZM80.6821 21V20.2H79.5781V21V21.8H80.6821V21ZM79.5781 21H80.3781V7.824H79.5781H78.7781V21H79.5781ZM79.5781 7.824V8.624H80.6821V7.824V7.024H79.5781V7.824ZM80.6821 7.824H79.8821V13.848H80.6821H81.4821V7.824H80.6821ZM80.6821 13.848V14.648H91.6501V13.848V13.048H80.6821V13.848ZM91.6501 13.848H92.4501V7.824H91.6501H90.8501V13.848H91.6501ZM91.6501 7.824V8.624H92.7541V7.824V7.024H91.6501V7.824ZM92.7541 7.824H91.9541V21H92.7541H93.5541V7.824H92.7541ZM92.7541 21V20.2H91.6501V21V21.8H92.7541V21ZM91.6501 21H92.4501V14.952H91.6501H90.8501V21H91.6501ZM91.6501 14.952V14.152H80.6821V14.952V15.752H91.6501V14.952ZM95.1759 11.832L94.4435 11.5098L94.4383 11.5222L95.1759 11.832ZM96.5919 9.744L97.1576 10.3097L97.1576 10.3097L96.5919 9.744ZM98.7039 8.328L99.0137 9.06569L99.0261 9.06025L98.7039 8.328ZM103.84 8.328L103.518 9.06036L103.53 9.06559L103.84 8.328ZM105.928 9.744L105.355 10.3021L105.362 10.3097L105.37 10.3172L105.928 9.744ZM107.344 11.832L106.606 12.1418L106.612 12.1542L107.344 11.832ZM107.344 16.968L106.612 16.6458L106.606 16.6582L107.344 16.968ZM105.928 19.08L105.362 18.5143L105.362 18.5143L105.928 19.08ZM103.84 20.496L104.15 21.2337L104.162 21.2283L103.84 20.496ZM98.7039 20.496L98.3816 21.2284L98.3941 21.2336L98.7039 20.496ZM96.5919 19.08L96.0187 19.6381L96.0261 19.6457L96.0338 19.6532L96.5919 19.08ZM95.1759 16.968L94.4382 17.2778L94.4436 17.2902L95.1759 16.968ZM105.16 18.288L104.594 17.7223L104.594 17.7223L105.16 18.288ZM106.336 16.536L107.071 16.8511L107.071 16.8511L106.336 16.536ZM106.336 12.264L107.071 11.9489L107.071 11.9489L106.336 12.264ZM105.16 10.512L104.594 11.0777L104.594 11.0777L105.16 10.512ZM103.408 9.336L103.723 8.60068L103.723 8.60068L103.408 9.336ZM99.1359 9.336L98.8207 8.60068L98.8207 8.60068L99.1359 9.336ZM97.3839 10.512L97.9496 11.0777L97.9496 11.0777L97.3839 10.512ZM96.2079 16.536L95.4726 16.8511L95.4726 16.8511L96.2079 16.536ZM99.1359 19.464L98.8207 20.1993L98.8207 20.1993L99.1359 19.464ZM94.6719 14.4H95.4719C95.4719 13.5889 95.6207 12.8387 95.9135 12.1418L95.1759 11.832L94.4383 11.5222C94.059 12.4253 93.8719 13.3871 93.8719 14.4H94.6719ZM95.1759 11.832L95.9081 12.1542C96.222 11.4409 96.6388 10.8285 97.1576 10.3097L96.5919 9.744L96.0262 9.17831C95.361 9.84351 94.8338 10.6231 94.4436 11.5098L95.1759 11.832ZM96.5919 9.744L97.1576 10.3097C97.6915 9.77572 98.3084 9.36179 99.0137 9.06559L98.7039 8.328L98.3941 7.59041C97.4993 7.9662 96.7082 8.49628 96.0262 9.17831L96.5919 9.744ZM98.7039 8.328L99.0261 9.06025C99.7201 8.75487 100.466 8.6 101.272 8.6V7.8V7C100.254 7 99.2876 7.19713 98.3817 7.59575L98.7039 8.328ZM101.272 7.8V8.6C102.078 8.6 102.824 8.75487 103.518 9.06025L103.84 8.328L104.162 7.59575C103.256 7.19713 102.29 7 101.272 7V7.8ZM103.84 8.328L103.53 9.06559C104.233 9.36099 104.839 9.77274 105.355 10.3021L105.928 9.744L106.501 9.18591C105.832 8.49926 105.046 7.96701 104.15 7.59041L103.84 8.328ZM105.928 9.744L105.37 10.3172C105.899 10.8326 106.311 11.4385 106.606 12.1418L107.344 11.832L108.081 11.5222C107.705 10.6255 107.173 9.8394 106.486 9.17082L105.928 9.744ZM107.344 11.832L106.612 12.1542C106.917 12.8482 107.072 13.594 107.072 14.4H107.872H108.672C108.672 13.382 108.475 12.4158 108.076 11.5098L107.344 11.832ZM107.872 14.4H107.072C107.072 15.206 106.917 15.9518 106.612 16.6458L107.344 16.968L108.076 17.2902C108.475 16.3842 108.672 15.418 108.672 14.4H107.872ZM107.344 16.968L106.606 16.6582C106.31 17.3635 105.896 17.9803 105.362 18.5143L105.928 19.08L106.494 19.6457C107.176 18.9637 107.706 18.1725 108.081 17.2778L107.344 16.968ZM105.928 19.08L105.362 18.5143C104.843 19.0331 104.231 19.4499 103.518 19.7637L103.84 20.496L104.162 21.2283C105.049 20.8381 105.828 20.3109 106.494 19.6457L105.928 19.08ZM103.84 20.496L103.53 19.7584C102.833 20.0511 102.083 20.2 101.272 20.2V21V21.8C102.285 21.8 103.247 21.6129 104.15 21.2336L103.84 20.496ZM101.272 21V20.2C100.461 20.2 99.7106 20.0511 99.0137 19.7584L98.7039 20.496L98.3941 21.2336C99.2971 21.6129 100.259 21.8 101.272 21.8V21ZM98.7039 20.496L99.0261 19.7637C98.3109 19.4491 97.6874 19.0301 97.15 18.5068L96.5919 19.08L96.0338 19.6532C96.7123 20.3139 97.4968 20.8389 98.3817 21.2283L98.7039 20.496ZM96.5919 19.08L97.1651 18.5219C96.6417 17.9845 96.2228 17.361 95.9081 16.6458L95.1759 16.968L94.4436 17.2902C94.833 18.175 95.358 18.9595 96.0187 19.6381L96.5919 19.08ZM95.1759 16.968L95.9135 16.6582C95.6207 15.9613 95.4719 15.2111 95.4719 14.4H94.6719H93.8719C93.8719 15.4129 94.059 16.3747 94.4383 17.2778L95.1759 16.968ZM101.272 19.896V20.696C102.129 20.696 102.949 20.5312 103.723 20.1993L103.408 19.464L103.093 18.7287C102.523 18.9728 101.919 19.096 101.272 19.096V19.896ZM103.408 19.464L103.723 20.1993C104.485 19.8729 105.155 19.4247 105.726 18.8537L105.16 18.288L104.594 17.7223C104.173 18.1433 103.675 18.4791 103.093 18.7287L103.408 19.464ZM105.16 18.288L105.726 18.8537C106.297 18.2827 106.745 17.6127 107.071 16.8511L106.336 16.536L105.601 16.2209C105.351 16.8033 105.015 17.3013 104.594 17.7223L105.16 18.288ZM106.336 16.536L107.071 16.8511C107.403 16.0767 107.568 15.2572 107.568 14.4H106.768H105.968C105.968 15.0468 105.845 15.6513 105.601 16.2209L106.336 16.536ZM106.768 14.4H107.568C107.568 13.5428 107.403 12.7233 107.071 11.9489L106.336 12.264L105.601 12.5791C105.845 13.1487 105.968 13.7532 105.968 14.4H106.768ZM106.336 12.264L107.071 11.9489C106.745 11.1873 106.297 10.5173 105.726 9.94631L105.16 10.512L104.594 11.0777C105.015 11.4987 105.351 11.9967 105.601 12.5791L106.336 12.264ZM105.16 10.512L105.726 9.94631C105.155 9.37532 104.485 8.92705 103.723 8.60068L103.408 9.336L103.093 10.0713C103.675 10.3209 104.173 10.6567 104.594 11.0777L105.16 10.512ZM103.408 9.336L103.723 8.60068C102.949 8.26877 102.129 8.104 101.272 8.104V8.904V9.704C101.919 9.704 102.523 9.82722 103.093 10.0713L103.408 9.336ZM101.272 8.904V8.104C100.415 8.104 99.5952 8.26877 98.8207 8.60068L99.1359 9.336L99.451 10.0713C100.021 9.82722 100.625 9.704 101.272 9.704V8.904ZM99.1359 9.336L98.8207 8.60068C98.0592 8.92705 97.3892 9.37532 96.8182 9.94631L97.3839 10.512L97.9496 11.0777C98.3706 10.6567 98.8685 10.3209 99.451 10.0713L99.1359 9.336ZM97.3839 10.512L96.8182 9.94631C96.2472 10.5173 95.7989 11.1873 95.4726 11.9489L96.2079 12.264L96.9432 12.5791C97.1928 11.9967 97.5286 11.4987 97.9496 11.0777L97.3839 10.512ZM96.2079 12.264L95.4726 11.9489C95.1407 12.7233 94.9759 13.5428 94.9759 14.4H95.7759H96.5759C96.5759 13.7532 96.6991 13.1487 96.9432 12.5791L96.2079 12.264ZM95.7759 14.4H94.9759C94.9759 15.2572 95.1407 16.0767 95.4726 16.8511L96.2079 16.536L96.9432 16.2209C96.6991 15.6513 96.5759 15.0468 96.5759 14.4H95.7759ZM96.2079 16.536L95.4726 16.8511C95.7989 17.6127 96.2472 18.2827 96.8182 18.8537L97.3839 18.288L97.9496 17.7223C97.5286 17.3013 97.1928 16.8033 96.9432 16.2209L96.2079 16.536ZM97.3839 18.288L96.8182 18.8537C97.3892 19.4247 98.0592 19.8729 98.8207 20.1993L99.1359 19.464L99.451 18.7287C98.8685 18.4791 98.3706 18.1433 97.9496 17.7223L97.3839 18.288ZM99.1359 19.464L98.8207 20.1993C99.5952 20.5312 100.415 20.696 101.272 20.696V19.896V19.096C100.625 19.096 100.021 18.9728 99.451 18.7287L99.1359 19.464Z" fill="#2C2D31" mask="url(#path-1-outside-1_3044_1493)"/>
<g filter="url(#filter0_fg_3044_1493)">
<path d="M66.1382 28.3855C66.1382 30.2889 65.4008 32.1144 64.088 33.4604C62.7753 34.8064 60.9949 35.5625 59.1385 35.5625C57.282 35.5625 55.5016 34.8064 54.1889 33.4604C52.8761 32.1144 52.1387 30.2889 52.1387 28.3855L55.2677 28.3855C55.2677 29.4381 55.6755 30.4475 56.4014 31.1918C57.1273 31.9361 58.1119 32.3543 59.1385 32.3543C60.165 32.3543 61.1496 31.9361 61.8755 31.1918C62.6014 30.4475 63.0092 29.4381 63.0092 28.3855H66.1382Z" fill="#2C2D31"/>
<path d="M18.9996 28.3855C18.9996 30.2889 18.2621 32.1144 16.9494 33.4604C15.6367 34.8064 13.8562 35.5625 11.9998 35.5625C10.1433 35.5625 8.3629 34.8064 7.05019 33.4604C5.73748 32.1144 5 30.2889 5 28.3855L8.12901 28.3855C8.12901 29.4381 8.53682 30.4475 9.26273 31.1918C9.98864 31.9361 10.9732 32.3543 11.9998 32.3543C13.0264 32.3543 14.0109 31.9361 14.7368 31.1918C15.4627 30.4475 15.8706 29.4381 15.8706 28.3855H18.9996Z" fill="#2C2D31"/>
<path d="M34.7705 28.2956C34.7705 30.1991 34.0237 32.0246 32.6944 33.3706C31.3651 34.7165 29.5621 35.4727 27.6821 35.4727C25.8022 35.4727 23.9992 34.7165 22.6699 33.3706C21.3406 32.0246 20.5938 30.1991 20.5938 28.2956L23.7624 28.2956C23.7624 29.3482 24.1753 30.3577 24.9104 31.102C25.6455 31.8463 26.6426 32.2644 27.6821 32.2644C28.7217 32.2644 29.7187 31.8463 30.4538 31.102C31.1889 30.3577 31.6019 29.3482 31.6019 28.2956H34.7705Z" fill="#2C2D31"/>
<path d="M50.542 28.3855C50.542 30.2889 49.7952 32.1144 48.4659 33.4604C47.1365 34.8064 45.3336 35.5625 43.4536 35.5625C41.5737 35.5625 39.7707 34.8064 38.4414 33.4604C37.112 32.1144 36.3652 30.2889 36.3652 28.3855L39.5339 28.3855C39.5339 29.4381 39.9468 30.4475 40.6819 31.1918C41.417 31.9361 42.414 32.3543 43.4536 32.3543C44.4932 32.3543 45.4902 31.9361 46.2253 31.1918C46.9604 30.4475 47.3734 29.4381 47.3734 28.3855H50.542Z" fill="#2C2D31"/>
<path d="M31.4043 33.9668C31.4043 34.9209 31.5923 35.8657 31.9574 36.7472C32.3225 37.6287 32.8577 38.4297 33.5324 39.1044C34.207 39.7791 35.008 40.3142 35.8895 40.6794C36.771 41.0445 37.7158 41.2324 38.6699 41.2324V37.8785C38.1562 37.8785 37.6476 37.7773 37.173 37.5807C36.6984 37.3841 36.2672 37.096 35.904 36.7328C35.5407 36.3695 35.2526 35.9383 35.056 35.4637C34.8595 34.9891 34.7583 34.4805 34.7583 33.9668H31.4043Z" fill="#2C2D31"/>
<rect width="3.36698" height="5.84795" transform="matrix(1 0 0 -1 31.4043 34.1445)" fill="#2C2D31"/>
<path d="M76.9994 28.1033C76.9994 29.0361 76.8177 29.9598 76.4646 30.8216C76.1115 31.6834 75.5939 32.4665 74.9415 33.1261C74.2891 33.7857 73.5145 34.3089 72.6621 34.6659C71.8096 35.0229 70.896 35.2066 69.9733 35.2066L69.9733 31.9682C70.4753 31.9682 70.9725 31.8682 71.4363 31.674C71.9001 31.4797 72.3215 31.1951 72.6765 30.8362C73.0315 30.4773 73.313 30.0512 73.5052 29.5823C73.6973 29.1134 73.7962 28.6108 73.7962 28.1033H76.9994Z" fill="#2C2D31"/>
<rect width="3.24281" height="3.08838" transform="matrix(0 -1 -1 0 70.0488 35.207)" fill="#2C2D31"/>
</g>
<defs>
<filter id="filter0_fg_3044_1493" x="0" y="23.1035" width="82" height="23.1289" filterUnits="userSpaceOnUse" color-interpolation-filters="sRGB">
<feFlood flood-opacity="0" result="BackgroundImageFix"/>
<feBlend mode="normal" in="SourceGraphic" in2="BackgroundImageFix" result="shape"/>
<feGaussianBlur stdDeviation="2.5" result="effect1_foregroundBlur_3044_1493"/>
<feTurbulence type="fractalNoise" baseFrequency="10 10" numOctaves="3" seed="2618" result="displacementX" />
<feTurbulence type="fractalNoise" baseFrequency="10 10" numOctaves="3" seed="2619" result="displacementY" />
<feColorMatrix in="displacementX" type="matrix" values="0 0 0 1 0  0 0 0 0 0  0 0 0 0 0  0 0 0 0 1" result="displacementXRed" />
<feColorMatrix in="displacementY" type="matrix" values="0 0 0 0 0  0 0 0 1 0  0 0 0 0 0  0 0 0 0 1" />
<feComposite in="displacementXRed" operator="arithmetic" k1="0" k2="1" k3="1" k4="0"/>
<feDisplacementMap in="effect1_foregroundBlur_3044_1493" scale="10" xChannelSelector="R" yChannelSelector="G" width="100%" height="100%" />
<feColorMatrix  type="matrix" values="0 0 0 0 0  0 0 0 0 0  0 0 0 0 0  0 0 0 1 0" />
<feComponentTransfer result="sourceDisplacedAlpha">
<feFuncA type="gamma" exponent="0.2" />
</feComponentTransfer>
<feColorMatrix in="effect1_foregroundBlur_3044_1493" type="matrix" values="0 0 0 0 0  0 0 0 0 0  0 0 0 0 0  0 0 0 1 0" />
<feComponentTransfer result="inputSourceAlpha">
<feFuncA type="gamma" exponent="0.2" />
</feComponentTransfer>
<feComposite in="sourceDisplacedAlpha" operator="arithmetic" k1="1" k2="0" k3="0" k4="0" result="displacementAlphasMultiplied"/>
<feComposite in="displacementAlphasMultiplied"  operator="arithmetic" k1="0" k2="0" k3="-0.5" k4="0.5" result="centeringAdjustment"/>
<feComposite in="displacementX" in2="displacementAlphasMultiplied" operator="arithmetic" k1="1" k2="0" k3="0" k4="0" />
<feComposite in="centeringAdjustment" operator="arithmetic" k1="0" k2="1" k3="1" k4="0" />
<feColorMatrix  type="matrix" values="0 0 0 1 0  0 0 0 0 0  0 0 0 0 0  0 0 0 0 1" result="displacementXFinal" />
<feComposite in="displacementY" in2="displacementAlphasMultiplied" operator="arithmetic" k1="1" k2="0" k3="0" k4="0" />
<feComposite in="centeringAdjustment" operator="arithmetic" k1="0" k2="1" k3="1" k4="0" />
<feColorMatrix  type="matrix" values="0 0 0 0 0  0 0 0 1 0  0 0 0 0 0  0 0 0 0 1" result="displacementYFinal" />
<feComposite in="displacementXFinal" in2="displacementYFinal" operator="arithmetic" k1="0" k2="1" k3="1" k4="0" />
<feComposite in2="displacementAlphasMultiplied" operator="in" result="displacementMap" />
<feFlood flood-color="rgb(127, 127, 127)" flood-opacity="1"/>
<feComposite in2="displacementAlphasMultiplied" operator="out" />
<feComposite in2="displacementMap" operator="over" result="displacementMapWithBg"/>
<feDisplacementMap in="effect1_foregroundBlur_3044_1493" scale="10" xChannelSelector="R" yChannelSelector="G" width="100%" height="100%" result="displacedImage" />
<feColorMatrix in="effect1_foregroundBlur_3044_1493" type="matrix" values="1 0 0 0 0  0 1 0 0 0  0 0 1 0 0  0 0 0 127 0" result="imageOpaque" />
<feDisplacementMap in="imageOpaque" in2="displacementMapWithBg" scale="10" xChannelSelector="R" yChannelSelector="G" width="100%" height="100%" result="displacedImageOpaque" />
<feColorMatrix in="displacedImage" type="matrix" values="0 0 0 1 0  0 0 0 0 0  0 0 0 0 0  0 0 0 127 0" result="displacedImageRed" />
<feColorMatrix in="effect1_foregroundBlur_3044_1493" type="matrix" values="0 0 0 1 0  0 0 0 0 0  0 0 0 0 0  0 0 0 127 0" />
<feComposite in="displacedImageRed"  operator="atop" result="transparencyRedMap"/>
<feColorMatrix in="transparencyRedMap" type="matrix" values="0 0 0 0 0  0 0 0 0 0  0 0 0 0 0  1 0 0 0 0" result="transparencyAlphaMap" />
<feComposite in="displacedImageOpaque" in2="imageOpaque" operator="over" />
<feComposite in2="transparencyAlphaMap" operator="in" result="effect2_texture_3044_1493"/>
</filter>
</defs>
</svg>
