<svg width="36" height="36" viewBox="0 0 36 36" fill="none" xmlns="http://www.w3.org/2000/svg">
<path fill-rule="evenodd" clip-rule="evenodd" d="M18 0C8.0586 0 0 8.0586 0 18C0 21.402 0.945 24.588 2.5884 27.3024L0.9828 32.76C0.890612 33.0733 0.884546 33.4057 0.96524 33.7222C1.04593 34.0387 1.21041 34.3277 1.44137 34.5586C1.67233 34.7896 1.96125 34.9541 2.27775 35.0347C2.59425 35.1154 2.92665 35.1094 3.24 35.0172L8.6976 33.4116C11.5033 35.1089 14.7208 36.0042 18 36C27.9414 36 36 27.9414 36 18C36 8.0586 27.9414 0 18 0ZM13.9284 22.0734C17.5698 25.713 21.0456 26.1936 22.2732 26.2386C24.1398 26.307 25.9578 24.8814 26.6652 23.2272C26.7537 23.0212 26.7858 22.7954 26.7579 22.573C26.7301 22.3505 26.6434 22.1396 26.5068 21.9618C25.5204 20.7018 24.1866 19.7964 22.8834 18.8964C22.6115 18.7078 22.277 18.6321 21.9503 18.6851C21.6236 18.7382 21.3303 18.9159 21.132 19.1808L20.052 20.8278C19.9949 20.916 19.9065 20.9792 19.8045 21.0046C19.7026 21.03 19.5948 21.0157 19.503 20.9646C18.7704 20.5452 17.703 19.8324 16.9362 19.0656C16.1694 18.2988 15.4998 17.28 15.1236 16.5942C15.0781 16.5068 15.0652 16.4061 15.0873 16.3101C15.1094 16.2141 15.1651 16.1291 15.2442 16.0704L16.9074 14.8356C17.1454 14.6297 17.2991 14.3431 17.339 14.0309C17.3788 13.7187 17.3021 13.4027 17.1234 13.1436C16.317 11.9628 15.3774 10.4616 14.0148 9.4662C13.8386 9.33958 13.6326 9.26062 13.4169 9.23697C13.2012 9.21332 12.9831 9.24578 12.7836 9.3312C11.1276 10.0404 9.6948 11.8584 9.7632 13.7286C9.8082 14.9562 10.2888 18.432 13.9284 22.0734Z" fill="#2C2D31"/>
</svg>
